<svg id="Layer_1" data-name="Layer 1" xmlns="http://www.w3.org/2000/svg" viewBox="0 0 1447.68 935.46"><defs><style>.cls-1{fill:#abd7ff;}</style></defs><title>backdrop</title><path class="cls-1" d="M838.91,936.54c2.18-6.32,5-12.51,6.34-19a72.05,72.05,0,0,0,1.1-18.9c-.56-8.63-1.67-17.29-4.8-25.49a133,133,0,0,0-17.3-31.34c-6.74-9.19-13.94-18.06-20.53-27.36-7.17-10.12-13.1-20.94-14.64-33.53a54.28,54.28,0,0,1-.21-11.95A155.13,155.13,0,0,1,805.68,712c7.4-14.16,16.6-27.22,26-40.13,8-11,16.2-21.79,24.49-32.54,7.74-10,16.16-19.55,23.49-29.86,16.48-23.16,30.52-47.65,37-75.72,2.52-10.95,3.69-21.93,2.22-33.33-1.38-10.68-3.5-21-7.5-31s-10.2-18.78-17.38-26.74c-14.35-15.9-31.37-28.4-49.91-39-14.51-8.32-28.34-17.63-39.79-30-9.49-10.27-15.5-22.06-16.76-36.26-2-22.72,2.25-44.18,11.53-64.89,7.39-16.5,17.8-31.07,28.3-45.61,9.55-13.22,19.32-26.33,26.87-40.82,8.66-16.63,15.09-34.1,17.48-52.84a160.05,160.05,0,0,0-2.76-55,129.26,129.26,0,0,0-25.36-53c-6.26-7.91-13.94-14.7-21-22a36.91,36.91,0,0,1,6.18-1q73.82-.1,147.62-.08C986,15.37,992.2,30.14,996,46a129.11,129.11,0,0,1,3.07,41.56A211.68,211.68,0,0,1,993.51,119a430.84,430.84,0,0,1-19,59.48c-7.44,18.45-17.56,35.35-29.12,51.44-11.32,15.75-23.11,31.2-31.49,48.82-6.37,13.41-10.5,27.4-9.56,42.49a25.35,25.35,0,0,0,10.49,19.37c6.76,5.19,14.73,7.72,22.52,10.65,16.11,6.08,32.36,11.81,48.38,18.13A192.36,192.36,0,0,1,1031,395.16a131.43,131.43,0,0,1,30.65,32c7.1,10.64,12.4,22.14,14.08,35,.83,6.45,1.7,12.9,2.11,19.38.76,12.1-2.16,23.69-5.27,35.26-7.38,27.47-22.07,51.09-38.6,73.76-12.69,17.4-28.27,32.16-43.84,46.82C976,650.72,960.83,662.93,947.43,677c-18.35,19.31-31.31,41.66-37.55,67.65a179.09,179.09,0,0,0-4.22,24c-1.32,13.12,2.83,24.72,11.85,34.38,10,10.74,22.69,17.36,36.31,22.2a81.15,81.15,0,0,1,38.63,28.86,62.21,62.21,0,0,1,12.19,30.45,195.71,195.71,0,0,1,1.07,24.93c-.14,8.25-3.5,15.85-6.3,23.5-.43,1.18-.82,2.38-1.23,3.57Z" transform="translate(-1.09 -1.09)"/><path class="cls-1" d="M1430.08,2.3a87.3,87.3,0,0,1,4.25,28.84,110.08,110.08,0,0,1-4.85,28.25c-4.86,16.21-10.82,32-19.24,46.66-7,12.22-15,24-23.1,35.52-15.49,22-30.17,44.44-41,69.15a72.87,72.87,0,0,0-6.64,28.93,39.19,39.19,0,0,0,5.82,21.21,137,137,0,0,0,26.31,31.57c12.81,11.25,25.06,23.2,36.81,35.56,12,12.66,22.18,26.88,29,43.14,4.38,10.53,7.91,21.35,9.26,32.82,1,8.63,2.16,17.21,2.09,25.93a125.3,125.3,0,0,1-5.88,36.29c-6.12,19.67-15.12,38-25.46,55.8-9.68,16.68-20.92,32.19-32.87,47.23-6.75,8.5-14.06,16.57-21.21,24.76-12.86,14.74-26,29.21-38.6,44.2-10.61,12.65-20.52,25.9-27.15,41.2-9.07,20.93-5.88,40.61,10.47,56.91a42.43,42.43,0,0,0,14.55,9.25c14.9,5.64,30.14,10.39,45.21,15.62,12.71,4.42,25.05,9.59,35.73,18.11,15.41,12.3,26.52,27.33,29.59,47.2,1.37,8.85.13,17.69-2.47,26.32a140.68,140.68,0,0,1-22.45,43.84c-9.42,12.6-19.83,24.46-29.76,36.68a18.38,18.38,0,0,0-1.74,3.25h-89.46c3.12-4.38,6.17-8.82,9.37-13.15a127.34,127.34,0,0,0,23.17-54,77,77,0,0,0-7-48.62c-5.28-10.72-13.3-18.86-23.52-25a68.24,68.24,0,0,0-34.58-9.79c-10.33-.18-20.67-.41-31-1.09-15-1-29.63-3.94-42-13-15.33-11.19-24.22-26.11-24.3-45.61,0-11.16,2.26-21.91,5.23-32.57,6.5-23.36,17.81-44.38,31.83-63.92q17.9-24.93,37-49c18.45-23.26,38.36-45.38,55.39-69.76,8.18-11.72,15.66-23.95,23-36.21,9.68-16.08,16.77-33.35,22.43-51.22a139.88,139.88,0,0,0,6.42-32.92c1-14.43-1.17-28.15-8-40.9-8.56-16.07-21.36-27.58-38.11-35-11.55-5.11-23.6-8.15-35.92-10.35-4.09-.73-8.27-.87-12.41-1.34-9.69-1.09-19.46-1.79-29.06-3.45-10-1.74-18.36-6.67-23.92-15.55a30.94,30.94,0,0,1-4.44-15.48c-.93-23.59,4-46,12.95-67.76s21.36-41.55,35.58-60.25c11-14.42,22.16-28.71,31.26-44.43,7.46-12.87,14.64-25.84,18.61-40.39,5-18.33,4.44-36.15-3.44-53.57q54.5,0,109-.06C1403.93,2.19,1417,2.26,1430.08,2.3Z" transform="translate(-1.09 -1.09)"/><path class="cls-1" d="M501.82,936.54c.71-5.91,2-11.82,2-17.73a105.36,105.36,0,0,0-15.93-56.73c-9.07-14.69-19.76-28.16-30.05-41.94a108.26,108.26,0,0,1-20.41-49.77c-1-7-2.05-14-2-21,.08-21.45,5.42-41.45,17.13-59.72a303.25,303.25,0,0,1,32-41.76c9.32-10.14,19.08-19.91,28-30.38,10-11.68,19.59-23.74,28.77-36.06a213.12,213.12,0,0,0,16.41-25.6A97.87,97.87,0,0,0,568.49,523a79.22,79.22,0,0,0-6.7-45.5,76.67,76.67,0,0,0-10.93-16.74c-12.9-15.39-30.07-25.32-46.95-35.59-11.14-6.77-22.46-13.32-33.18-20.72-17.36-12-27.52-28.92-32.09-49.36-3.08-13.78-2.9-27.63-1.37-41.59,2.64-24.11,12.22-45.63,23.79-66.55,14-25.31,31.44-48.26,48.88-71.17A166,166,0,0,0,540.7,108c2.24-10.8,1.86-21.88.76-33-1.41-14.31-6.46-27-14-39C518,21.05,505.62,9.54,488.8,3.24a37,37,0,0,1,6.19-1q76-.1,151.93-.06C661.53,20.84,672.07,41.51,677,64.8a117.75,117.75,0,0,1,2.48,35.11,144.07,144.07,0,0,1-12.69,46.94,163.61,163.61,0,0,1-30.1,44.94c-9.62,10.14-19.25,20.27-29.22,30.06s-20.55,18.41-30.06,28.35c-12,12.55-23.63,25.62-31.14,41.59a99.41,99.41,0,0,0-7.51,25.42c-2.54,14.5,3.06,26.59,11.15,37.4a117.42,117.42,0,0,0,41.07,35c14.23,7.21,28.67,14,43,21,16.06,7.87,30.08,18.25,40,33.44a77.26,77.26,0,0,1,11.19,29.25c3.7,21.27-.68,41.4-8.33,61.11a216.86,216.86,0,0,1-26.34,49.28C643,594,634.9,603.7,627,613.6c-11,13.8-24,25.68-36.15,38.44-10.6,11.17-20.87,22.66-29.28,35.65-8.58,13.26-14.69,27.54-17,43.19-1.77,12.23-1.92,24.44,2.68,36.37,2.75,7.12,7,13.16,11.88,18.72,9.18,10.51,19,20.49,28.36,30.8,11.37,12.48,22.47,25.15,29.24,41a103.58,103.58,0,0,1,8.32,32.45c.42,5,.93,10.09,1,15.14a114.11,114.11,0,0,1-3,28,19.51,19.51,0,0,0-.24,3.25Z" transform="translate(-1.09 -1.09)"/><path class="cls-1" d="M274.9,2.2c11.61,11.73,23.34,23.34,34.79,35.22,10.23,10.63,18.48,22.74,25.88,35.49a150.1,150.1,0,0,1,17.94,47.57c2.9,15.11,3.05,30.41,1.78,45.52-1,12-4.13,23.86-7.21,35.54-6,22.74-15.83,44-27,64.61-6.92,12.73-14.8,24.94-22.09,37.47-5.12,8.79-9.89,17.79-12.54,27.7-3.27,12.24-2.54,24.47,1.26,36.42a148.8,148.8,0,0,0,8.18,20.71c8.58,17.42,17.49,34.69,26.51,51.9,5.64,10.76,11.82,21.23,17.54,31.95,6,11.15,9,23.31,11.2,35.64a171.87,171.87,0,0,1,2.23,21c.81,15.34-1.85,30.32-5.74,45.07a321.1,321.1,0,0,1-18,50.65c-8.25,18.26-18.56,35.29-29.09,52.23-6.22,10-12.09,20.16-16.3,31.29-5.37,14.2-4.57,27.87.89,41.8,5.6,14.26,14.41,26.28,24.47,37.59,12.3,13.83,24.41,27.82,32.53,44.68,7.2,15,12.18,30.62,13.49,47.25a211.66,211.66,0,0,1,.9,26c-.27,6.24-2.06,12.45-3.53,18.59-1,4.21-2.59,8.29-3.92,12.42H219.27c.89-2.16,1.69-4.37,2.69-6.48,6.59-13.93,13.66-27.66,18.15-42.47a120.84,120.84,0,0,0,4.47-49.86c-2.29-19.42-10.77-35.49-24.45-49.08-4.75-4.72-9.85-9.11-14.66-13.77-15.89-15.4-27.36-33.32-30.71-55.58-2.13-14.21-.06-28.08,5-41.49,4.26-11.44,10.49-21.88,16.92-32.21,9-14.46,18.37-28.72,26.67-43.57,7.08-12.68,11.44-26.54,14.57-40.79,2.6-11.84,2.83-23.81,1.93-35.7a119.85,119.85,0,0,0-9.54-38.28c-5.54-12.95-13.08-24.65-21.55-35.75-6.14-8-13.11-15.46-19.62-23.23-16.87-20.18-31.1-41.94-39.38-67.12a97,97,0,0,1-4.39-39.71A144.41,144.41,0,0,1,157.7,275c8.37-18.3,17.53-36.23,26.4-54.3,12.78-26,27.14-51.36,35.48-79.38A157.09,157.09,0,0,0,226,104.52a121.79,121.79,0,0,0-6.12-46.38,113.31,113.31,0,0,0-23.08-39.68C192.11,13.23,187,8.33,182.12,3.28a30.18,30.18,0,0,1,5.65-1Q231.33,2.14,274.9,2.2Z" transform="translate(-1.09 -1.09)"/><path class="cls-1" d="M1.09,406.67c.92.74,2.2,1.3,2.71,2.26,5.52,10.4,11.09,20.79,16.3,31.35C24.43,449.05,28.4,458,32.35,467a148.88,148.88,0,0,1,12,43.82,206,206,0,0,1,1.14,36.9c-1.63,23.16-6.37,45.82-15.19,67.47a236.64,236.64,0,0,1-26.45,47.4,16.88,16.88,0,0,1-2.8,2.51Z" transform="translate(-1.09 -1.09)"/><path class="cls-1" d="M11.93,2.27c3,7.37,6.35,14.63,9,22.14a140.91,140.91,0,0,1,7.51,36c.68,9,1.95,18,2,27a154.12,154.12,0,0,1-11.77,59.26c-4.32,10.57-9.47,20.8-14.36,31.12a25.58,25.58,0,0,1-3.18,4.25V2.18Z" transform="translate(-1.09 -1.09)"/><path class="cls-1" d="M1.09,815.52a15.69,15.69,0,0,1,2.77,2.54c10.51,15.83,21,31.71,29.38,48.8a111.89,111.89,0,0,1,11.2,36.64c1.25,10.93,1,22,1.38,33H1.09Z" transform="translate(-1.09 -1.09)"/><path class="cls-1" d="M646.92,2.17q-76,0-151.93.06a37,37,0,0,0-6.19,1l-2.25-2.15H646.91C646.91,1.45,646.91,1.81,646.92,2.17Z" transform="translate(-1.09 -1.09)"/><path class="cls-1" d="M976.38,2.15q-73.8,0-147.62.08a36.91,36.91,0,0,0-6.18,1l-1.13-2.17H976.36C976.37,1.44,976.37,1.8,976.38,2.15Z" transform="translate(-1.09 -1.09)"/><path class="cls-1" d="M1430.08,2.3c-13.07,0-26.15-.11-39.23-.11q-54.49,0-109,.06c0-.39,0-.77,0-1.16h148.36Z" transform="translate(-1.09 -1.09)"/><path class="cls-1" d="M274.9,2.2q-43.57,0-87.13,0a30.18,30.18,0,0,0-5.65,1c-.35-.73-.69-1.46-1-2.19h93.82Z" transform="translate(-1.09 -1.09)"/><path class="cls-1" d="M11.93,2.27,1.09,2.18c.18-.36.36-1,.55-1,3.45-.07,6.91,0,10.36,0Z" transform="translate(-1.09 -1.09)"/></svg>